<svg width="57" height="32" xmlns="http://www.w3.org/2000/svg" xmlns:xlink="http://www.w3.org/1999/xlink"><svg data-name="Layer 1" width="17.16" height="32" viewBox="-1 -1 17.16 32" x="38.91" xmlns="http://www.w3.org/2000/svg"><path d="M15.16.231v4.777h-2.736a2.535 2.535 0 00-2.035.65A3.042 3.042 0 009.861 7.6v3.406h5.134l-.714 5.334h-4.42V30H4.477V16.326H0v-5.334h4.477V7.043q0-3.349 1.82-5.198A6.426 6.426 0 0111.162.01a28.255 28.255 0 013.998.221z" fill="#fff"/></svg><svg data-name="Layer 1" width="38.91" height="32" viewBox="-1 -1 38.91 32" xmlns="http://www.w3.org/2000/svg"><path d="M36.912 3.566a15.847 15.847 0 01-3.792 3.935v.984a21.493 21.493 0 01-.891 6.08 21.963 21.963 0 01-2.68 5.797 22.883 22.883 0 01-4.32 4.933 19.247 19.247 0 01-6.046 3.421A22.099 22.099 0 0111.613 30 21.008 21.008 0 010 26.585a16.19 16.19 0 001.825.093 14.813 14.813 0 009.388-3.23 7.578 7.578 0 01-7.071-5.246 9.588 9.588 0 001.425.114 7.842 7.842 0 001.99-.257 7.442 7.442 0 01-4.342-2.616 7.307 7.307 0 01-1.718-4.812v-.093a7.5 7.5 0 003.422.955A7.556 7.556 0 012.459 8.8a7.371 7.371 0 01-.912-3.614 7.414 7.414 0 011.034-3.8 21.443 21.443 0 006.922 5.582A21.08 21.08 0 0018.2 9.269a8.405 8.405 0 01-.186-1.732 7.293 7.293 0 012.139-5.332 7.585 7.585 0 0110.693 0l.15.157a14.835 14.835 0 004.883-1.79 7.343 7.343 0 01-3.33 4.17 15.07 15.07 0 004.363-1.176z" fill="#fff"/></svg></svg>