<?xml version="1.0" encoding="UTF-8" standalone="no"?>
<svg
   xmlns:dc="http://purl.org/dc/elements/1.1/"
   xmlns:cc="http://creativecommons.org/ns#"
   xmlns:rdf="http://www.w3.org/1999/02/22-rdf-syntax-ns#"
   xmlns:svg="http://www.w3.org/2000/svg"
   xmlns="http://www.w3.org/2000/svg"
   id="svg8"
   version="1.1"
   viewBox="0 0 10.262341 10.262341"
   height="38.7868"
   width="38.7868">
  <defs
     id="defs2">
    <filter
       id="filter4086"
       style="color-interpolation-filters:sRGB">
      <feColorMatrix
         id="feColorMatrix4084"
         values="1.61 2.97 -0.83 0.833333 0 1.61 2.97 -0.83 0.833333 0 1.61 2.97 -0.83 0.833333 0 0 0 0 1 0 " />
    </filter>
  </defs>
  <metadata
     id="metadata5">
    <rdf:RDF>
      <cc:Work
         rdf:about="">
        <dc:format>image/svg+xml</dc:format>
        <dc:type
           rdf:resource="http://purl.org/dc/dcmitype/StillImage" />
        <dc:title></dc:title>
      </cc:Work>
    </rdf:RDF>
  </metadata>
  <g
     transform="translate(42.172837,944.86929)"
     id="layer1">
    <g
       id="g4054"
       transform="matrix(0.171039,0,0,0.171039,-41.317642,-944.0141)"
       style="filter:url(#filter4086)">
      <rect
         id="rect4032"
         width="50"
         height="50"
         x="0"
         y="0"
         style="fill:none" />
      <path
         id="path4034"
         stroke-miterlimit="10"
         d="M 32,5.499 C 32,7.984 34.014,10 36.498,10 38.987,10 41,7.984 41,5.499 41,3.016 38.987,1 36.498,1 34.014,1 32,3.016 32,5.499 Z"
         style="fill:none;stroke:#000000;stroke-width:2;stroke-linecap:round;stroke-linejoin:round;stroke-miterlimit:10" />
      <path
         id="path4036"
         stroke-miterlimit="10"
         d="m 19.332,26.559 -4.076,5.895 c 0,0 -6.795,0.473 -9.226,0.615 -1.86,0.109 -2.979,0.804 -2.979,2.01 0,1.206 0.942,1.884 3.624,2.099 2.261,0.181 9.988,0.652 9.988,0.652 0.009,0 0.018,0 0.024,0 0.903,0 1.849,-0.479 2.47,-1.396 l 3.978,-5.681"
         style="fill:none;stroke:#000000;stroke-width:2;stroke-linecap:round;stroke-linejoin:round;stroke-miterlimit:10" />
      <path
         id="path4038"
         stroke-miterlimit="10"
         d="M 34.842,31.451 27.938,26.72 34.963,15.467 c 0.402,-0.6 0.682,-2.203 0.083,-2.607 L 31.1,10.211 C 30.825,9.975 30.496,9.794 30.116,9.711 L 22.224,7.995 C 21.615,7.869 20.984,7.988 20.47,8.334 l -6.489,5.012 c -1.066,0.923 -2.088,2.077 -1.385,3.115 0.451,0.671 1.991,0.289 2.799,-0.202 l 6.811,-3.617 4.484,0.977 -6.047,8.986 c -1.387,2.401 -1.848,4.253 0.647,6.378 l 8.594,5.683 -3.593,8.87 c -1.355,3.251 -1.112,4.918 -0.184,5.311 0.928,0.393 2.293,-0.059 4.222,-3.596 l 5.463,-10.44 c 0.536,-1.202 0.136,-2.614 -0.95,-3.36 z"
         style="fill:none;stroke:#000000;stroke-width:2;stroke-linecap:round;stroke-linejoin:round;stroke-miterlimit:10" />
      <path
         id="path4040"
         stroke-miterlimit="10"
         d="m 33.084,19.029 1.742,4.181 c 0.324,0.728 1.06,1.435 1.852,1.53 0,0 5.533,-0.119 7.043,-0.202 1.587,-0.086 3.365,-0.384 3.404,-1.471 0.058,-1.558 -1.413,-1.673 -2.842,-1.776 L 38.702,20.817 35.394,13.32"
         style="fill:none;stroke:#000000;stroke-width:2;stroke-linecap:round;stroke-linejoin:round;stroke-miterlimit:10" />
    </g>
  </g>
</svg>
