<?xml version="1.0" encoding="UTF-8" standalone="no"?>
<svg
   xmlns:dc="http://purl.org/dc/elements/1.1/"
   xmlns:cc="http://creativecommons.org/ns#"
   xmlns:rdf="http://www.w3.org/1999/02/22-rdf-syntax-ns#"
   xmlns:svg="http://www.w3.org/2000/svg"
   xmlns="http://www.w3.org/2000/svg"
   id="svg8"
   version="1.1"
   viewBox="0 0 6.9433654 6.9433657"
   height="26.242641"
   width="26.242641">
  <defs
     id="defs2" />
  <metadata
     id="metadata5">
    <rdf:RDF>
      <cc:Work
         rdf:about="">
        <dc:format>image/svg+xml</dc:format>
        <dc:type
           rdf:resource="http://purl.org/dc/dcmitype/StillImage" />
        <dc:title></dc:title>
      </cc:Work>
    </rdf:RDF>
  </metadata>
  <g
     transform="translate(-21.474745,932.2485)"
     id="layer1">
    <g
       id="g4122"
       transform="matrix(0.31560752,0,0,0.31560752,21.790353,-931.93289)">
      <g
         id="g4095">
        <title
           id="title4092">background</title>
        <rect
           x="-1"
           y="-1"
           width="22"
           height="22"
           id="canvas_background"
           style="fill:none" />
      </g>
      <g
         id="g4103">
        <title
           id="title4097">Layer 1</title>
        <g
           id="Page-1"
           style="fill:none;fill-rule:evenodd">
          <g
             id="Icons-Device"
             style="fill:#000000;fill-opacity:0.9">
            <g
               id="access-time">
              <path
                 d="M 10,0 C 4.5,0 0,4.5 0,10 0,15.5 4.5,20 10,20 15.5,20 20,15.5 20,10 20,4.5 15.5,0 10,0 Z m 0,18 C 5.599998,18 2,14.4 2,10 2,5.6 5.599998,2 10,2 c 4.4,0 8,3.6 8,8 0,4.4 -3.6,8 -8,8 z M 10.5,5 H 9 v 6 L 14.200001,14.2 15,12.9 10.5,10.2 Z"
                 id="Shape"
                 style="fill:#ffffff" />
            </g>
          </g>
        </g>
      </g>
    </g>
  </g>
</svg>
