<?xml version="1.0" encoding="UTF-8" standalone="no"?>
<!-- Generator: Adobe Illustrator 19.2.1, SVG Export Plug-In . SVG Version: 6.00 Build 0)  -->

<svg
   xmlns:dc="http://purl.org/dc/elements/1.1/"
   xmlns:cc="http://creativecommons.org/ns#"
   xmlns:rdf="http://www.w3.org/1999/02/22-rdf-syntax-ns#"
   xmlns:svg="http://www.w3.org/2000/svg"
   xmlns="http://www.w3.org/2000/svg"
   xmlns:sodipodi="http://sodipodi.sourceforge.net/DTD/sodipodi-0.dtd"
   xmlns:inkscape="http://www.inkscape.org/namespaces/inkscape"
   version="1.1"
   id="layer"
   x="0px"
   y="0px"
   viewBox="0 0 599.93536 131.5"
   xml:space="preserve"
   sodipodi:docname="uwg.svg"
   width="599.93536"
   height="131.5"
   inkscape:version="0.92.3 (2405546, 2018-03-11)"><metadata
   id="metadata71"><rdf:RDF><cc:Work
       rdf:about=""><dc:format>image/svg+xml</dc:format><dc:type
         rdf:resource="http://purl.org/dc/dcmitype/StillImage" /><dc:title></dc:title></cc:Work></rdf:RDF></metadata><defs
   id="defs69" /><sodipodi:namedview
   pagecolor="#ffffff"
   bordercolor="#666666"
   borderopacity="1"
   objecttolerance="10"
   gridtolerance="10"
   guidetolerance="10"
   inkscape:pageopacity="0"
   inkscape:pageshadow="2"
   inkscape:window-width="2560"
   inkscape:window-height="1017"
   id="namedview67"
   showgrid="false"
   fit-margin-top="0"
   fit-margin-left="0"
   fit-margin-right="0"
   fit-margin-bottom="0"
   inkscape:zoom="1.0237865"
   inkscape:cx="396.79156"
   inkscape:cy="-41.511532"
   inkscape:window-x="-8"
   inkscape:window-y="-8"
   inkscape:window-maximized="1"
   inkscape:current-layer="layer" />
<style
   type="text/css"
   id="style2">
	.st0{fill:#FF3131;}
	.st1{fill:none;stroke:#FFFFFF;stroke-width:0.1446;stroke-linejoin:round;}
	.st2{fill:#0051A7;}
	.st3{fill:none;stroke:#0051A7;stroke-width:1.5495;stroke-linecap:round;stroke-linejoin:round;stroke-dasharray:0,3.8753;}
</style>
<g
   id="g64"
   transform="translate(-21.1,-255.3)">
	<path
   class="st0"
   d="m 352,324.7 c 13.4,-4.8 13.4,-23.7 -1.3,-33 -3.8,-2.4 -8.2,-6.6 -5.9,-12.4 -4.4,3.3 -5.4,7.5 -4.2,11.4 6.3,0.6 15.4,8.3 13,19.4 0.8,-6.3 -3.2,-14.6 -10.7,-17.3 -2.2,-0.8 -7,-1.5 -9.9,-1.7 -4.9,-0.3 -7.8,-3.1 -6.5,-7.2 -4.8,4.5 -2.6,12.2 2.8,16 4.8,3.4 9.9,2.7 13.2,10.1 -2.9,-3.7 -7.2,-5.3 -10.4,-5.7 -3.2,-0.3 -8.6,-2.2 -8.2,-6.6 -4.3,5.9 -1.1,14.1 7.6,15.3 2.5,0.4 11,0.3 13.7,6.3 -0.9,-2 -8.6,-2.7 -9.6,-4.1 -0.9,9.7 10.1,12.2 16.4,9.5"
   id="path4"
   inkscape:connector-curvature="0"
   style="fill:#ff3131" />
	<path
   class="st1"
   d="m 352,324.7 c 13.4,-4.8 13.4,-23.7 -1.3,-33 -3.8,-2.4 -8.2,-6.6 -5.9,-12.4 -4.4,3.3 -5.4,7.5 -4.2,11.4 6.3,0.6 15.4,8.3 13,19.4 0.8,-6.3 -3.2,-14.6 -10.7,-17.3 -2.2,-0.8 -7,-1.5 -9.9,-1.7 -4.9,-0.3 -7.8,-3.1 -6.5,-7.2 -4.8,4.5 -2.6,12.2 2.8,16 4.8,3.4 9.9,2.7 13.2,10.1 -2.9,-3.7 -7.2,-5.3 -10.4,-5.7 -3.2,-0.3 -8.6,-2.2 -8.2,-6.6 -4.3,5.9 -1.1,14.1 7.6,15.3 2.5,0.4 11,0.3 13.7,6.3 -0.9,-2 -8.6,-2.7 -9.6,-4.1 -0.9,9.7 10.1,12.2 16.4,9.5 z"
   id="path6"
   inkscape:connector-curvature="0"
   style="fill:none;stroke:#ffffff;stroke-width:0.1446;stroke-linejoin:round" />
	<path
   class="st2"
   d="m 76.5,300 c 0,3.7 1.3,6.6 5.7,6.6 4.1,0 6.5,-2.1 6.5,-6.9 v -8.4 c 0,-0.8 -0.1,-1.4 -0.2,-2 -0.2,-1 -1.1,-1.4 -2.9,-1.5 v -0.9 h 7.9 v 0.9 c -1.8,0.1 -2.7,0.5 -2.9,1.5 -0.1,0.6 -0.2,1.2 -0.2,2 v 8.7 c 0,6.1 -4.4,8.5 -8.9,8.5 -7.6,0 -9.9,-3.3 -9.9,-8.7 v -9.4 c 0,-0.8 0,-1.3 -0.1,-1.9 -0.1,-0.5 -1.3,-0.7 -2.8,-0.8 v -0.9 h 10.7 v 0.9 c -1.5,0.1 -2.7,0.2 -2.8,0.8 -0.1,0.6 -0.1,1 -0.1,1.9 z"
   id="path8"
   inkscape:connector-curvature="0"
   style="fill:#0051a7" />
	<path
   class="st2"
   d="m 114.1,308.1 c -4.1,-4.7 -9.8,-11.2 -14.8,-16.6 h -0.1 v 12.2 c 0,0.8 0.1,1.4 0.2,2 0.2,1 1.1,1.4 3.7,1.5 v 0.9 h -8.6 v -0.9 c 1.8,-0.1 2.7,-0.5 2.9,-1.5 0.1,-0.6 0.2,-1.2 0.2,-2 v -13.4 c -0.9,-1.4 -2.3,-2.4 -4.3,-2.4 V 287 h 7.9 c 4.2,4.8 9.4,10.7 13.9,15.6 h 0.1 v -11.2 c 0,-0.8 -0.1,-1.4 -0.2,-2 -0.1,-1 -1,-1.4 -3.6,-1.5 V 287 h 8.5 v 0.9 c -1.8,0.1 -2.7,0.5 -2.9,1.5 -0.1,0.6 -0.2,1.2 -0.2,2 v 16.8 h -2.7 z"
   id="path10"
   inkscape:connector-curvature="0"
   style="fill:#0051a7" />
	<path
   class="st2"
   d="m 129.2,304.5 c 0,0.8 0,1.3 0.1,1.9 0.1,0.5 1.3,0.7 2.8,0.8 v 0.9 h -10.7 v -0.9 c 1.5,-0.1 2.7,-0.2 2.8,-0.8 0.1,-0.6 0.1,-1 0.1,-1.9 v -14.1 c 0,-0.8 0,-1.3 -0.1,-1.9 -0.1,-0.5 -1.3,-0.7 -2.8,-0.8 v -0.9 h 10.7 v 0.9 c -1.5,0.1 -2.7,0.2 -2.8,0.8 -0.1,0.6 -0.1,1 -0.1,1.9 z"
   id="path12"
   inkscape:connector-curvature="0"
   style="fill:#0051a7" />
	<path
   class="st2"
   d="m 142.9,287.8 c -1.7,0 -2.8,0.5 -2.1,2.5 1.5,4 3.3,8.9 5.1,13.4 1.9,-4.3 3.8,-8.7 5.7,-13 0.9,-2.2 -0.1,-2.9 -2.2,-2.9 v -0.9 h 7.6 v 0.9 c -1.2,0 -2.4,0.5 -3.1,1.9 -2.7,6.1 -5.4,12.2 -8.1,18.4 h -3 c -1.7,-4.4 -4.9,-12.6 -6.4,-16.3 -1,-2.5 -2.3,-4.1 -4.1,-4.1 v -0.9 h 10.6 z"
   id="path14"
   inkscape:connector-curvature="0"
   style="fill:#0051a7" />
	<path
   class="st2"
   d="m 157.1,307.2 c 1.5,-0.1 2.7,-0.2 2.8,-0.8 0.1,-0.6 0.1,-1 0.1,-1.9 v -14.1 c 0,-0.8 0,-1.3 -0.1,-1.9 -0.1,-0.5 -1.3,-0.7 -2.8,-0.8 v -0.9 h 16.6 v 4.9 h -0.9 c -0.5,-2.2 -1.3,-3.8 -3.7,-3.8 h -4.3 v 8.5 h 2.8 c 2.1,0 3.1,-1.2 3.1,-2.9 h 0.9 v 7.1 h -0.9 c -0.1,-1.7 -0.8,-3 -3.1,-3 h -2.8 v 6.9 c 0,2.3 1.3,2.5 4,2.5 4.3,0 4.9,-1.7 6.4,-4.4 h 0.9 l -1,5.5 h -18 z"
   id="path16"
   inkscape:connector-curvature="0"
   style="fill:#0051a7" />
	<path
   class="st2"
   d="m 177.8,286.9 h 11.9 c 3.9,0 7.3,1.7 7.3,5.4 0,2.8 -2.1,5 -5,5.9 l 3.5,4.8 c 1.6,2.1 3.3,4.1 4.2,4.7 v 0.5 h -4.9 c -2,0 -4.1,-5.2 -6.7,-9.4 h -2.5 v 5.8 c 0,0.8 0,1.3 0.1,1.9 0.1,0.5 1.3,0.7 2.8,0.8 v 0.9 h -10.7 v -0.9 c 1.5,-0.1 2.7,-0.2 2.8,-0.8 0.1,-0.6 0.1,-1 0.1,-1.9 v -14.1 c 0,-0.8 0,-1.3 -0.1,-1.9 -0.1,-0.5 -1.3,-0.7 -2.8,-0.8 z m 7.7,10.7 h 2.4 c 3,0 4,-2.3 4,-5.1 0,-3.3 -1.7,-4.4 -4,-4.4 h -2.4 z"
   id="path18"
   inkscape:connector-curvature="0"
   style="fill:#0051a7" />
	<path
   class="st2"
   d="m 214.6,291.6 c -0.6,-1.9 -1.9,-4 -4.5,-4 -1.5,0 -3.3,0.8 -3.3,3.1 0,2.1 2.3,3.2 6,5.7 3.5,2.3 4.5,4 4.5,6.3 0,3.7 -4.1,5.7 -9,5.7 -2.8,0 -4.7,-0.4 -6.4,-1 -0.1,-0.1 -0.2,-0.2 -0.2,-0.4 v -4.6 h 0.9 c 0.6,2.8 2.5,4.9 5.4,4.9 2.2,0 4.2,-1.6 4.2,-3.8 0,-2 -1,-3.4 -5.7,-6.1 -2.5,-1.5 -4.6,-3.1 -4.6,-5.8 0,-3 3.2,-5.1 7.9,-5.1 2.2,0 3.9,0.1 5.6,0.5 0.2,0.1 0.3,0.3 0.3,0.4 v 4.2 z"
   id="path20"
   inkscape:connector-curvature="0"
   style="fill:#0051a7" />
	<path
   class="st2"
   d="m 227.6,304.5 c 0,0.8 0,1.3 0.1,1.9 0.1,0.5 1.3,0.7 2.8,0.8 v 0.9 h -10.7 v -0.9 c 1.5,-0.1 2.7,-0.2 2.8,-0.8 0.1,-0.6 0.1,-1 0.1,-1.9 v -14.1 c 0,-0.8 0,-1.3 -0.1,-1.9 -0.1,-0.5 -1.3,-0.7 -2.8,-0.8 v -0.9 h 10.7 v 0.9 c -1.5,0.1 -2.7,0.2 -2.8,0.8 -0.1,0.6 -0.1,1 -0.1,1.9 z"
   id="path22"
   inkscape:connector-curvature="0"
   style="fill:#0051a7" />
	<path
   class="st2"
   d="m 245.2,304.5 c 0,0.8 0,1.3 0.1,1.9 0.1,0.5 1.3,0.7 2.8,0.8 v 0.9 h -10.7 v -0.9 c 1.5,-0.1 2.7,-0.2 2.8,-0.8 0.1,-0.6 0.1,-1 0.1,-1.9 V 288 h -2.8 c -2.9,0 -3.6,1.6 -4.9,3.5 h -0.9 l 0.9,-4.6 h 20.3 l 0.9,4.6 h -0.9 c -1.3,-1.9 -2,-3.5 -4.9,-3.5 h -2.9 v 16.5 z"
   id="path24"
   inkscape:connector-curvature="0"
   style="fill:#0051a7" />
	<path
   class="st2"
   d="m 270.4,308.1 h -10.7 v -0.9 c 1.5,-0.1 2.7,-0.2 2.8,-0.8 0.1,-0.6 0.1,-1 0.1,-1.9 v -4.6 l -5.3,-9.5 c -1,-1.9 -2.2,-2.6 -3.8,-2.6 v -0.9 h 10.1 v 0.9 c -2.6,0 -2.3,1 -1.5,2.6 l 4.2,7.7 4.7,-7.6 c 1.1,-1.9 -0.1,-2.7 -2.1,-2.7 v -0.9 h 7.3 v 0.9 c -0.9,0 -1.8,0.3 -2.7,1.7 l -5.6,9 c -0.4,0.7 -0.6,1.6 -0.6,2.5 v 3.5 c 0,0.8 0,1.3 0.1,1.9 0.1,0.5 1.3,0.7 2.8,0.8 v 0.9 z"
   id="path26"
   inkscape:connector-curvature="0"
   style="fill:#0051a7" />
	<path
   class="st2"
   d="m 279.7,300.6 c 0,-3.8 3.3,-9.5 8.1,-9.5 3.8,0 4.7,2.6 4.7,5.2 0,3.2 -2.5,9.9 -8.1,9.9 -3.7,0.1 -4.7,-2.9 -4.7,-5.6 m 10.1,-5.6 c 0,-3 -1.8,-3.1 -2.3,-3.1 -3.1,0 -5.2,5.6 -5.2,9.4 0,1.5 0.3,4.2 2.4,4.2 3.4,-0.1 5.1,-5.5 5.1,-10.5"
   id="path28"
   inkscape:connector-curvature="0"
   style="fill:#0051a7" />
	<path
   class="st2"
   d="m 304.6,292.1 -0.7,0.6 h -3.8 c -1.4,6.9 -3.7,16 -5.4,20.4 h -1.3 l 4.1,-20.4 h -2.7 l 0.3,-1.2 h 2.7 c 1.5,-6.2 6.6,-6.8 7.8,-6.8 0.7,0 2.1,0.1 2.5,0.5 l -0.3,1.9 -0.7,0.3 c -0.4,-0.8 -1.3,-1.7 -2.5,-1.7 -1.7,0 -3,1.2 -3.7,4.3 l -0.3,1.4 h 4.2 z"
   id="path30"
   inkscape:connector-curvature="0"
   style="fill:#0051a7" />
	<path
   class="st2"
   d="m 39.3,317.4 c -4.4,0 -6,1.8 -4.6,6.5 l 8.3,29.9 h 0.1 l 14,-37.6 h 2.6 l 13.8,37.1 h 0.1 c 3.1,-9.7 6.1,-19.6 9.1,-29.5 1.3,-4.3 0.1,-6.4 -5.5,-6.5 v -1.8 h 15.3 v 1.8 c -2.1,0 -4.9,1.6 -6.1,5.4 l -12.9,41.5 h -3.2 l -14,-37.8 -13.9,37.8 h -3 L 29,327 c -1.9,-6.8 -4.2,-9.7 -7.9,-9.7 v -1.8 h 18.2 z"
   id="path32"
   inkscape:connector-curvature="0"
   style="fill:#0051a7" />
	<path
   class="st2"
   d="m 91.9,345 c 0,7.9 3.7,16.1 13.6,16.1 3.8,0 6.1,-1.7 7.8,-2.5 l 1.1,2.2 -9.1,4.3 h -2.2 c -1.7,0 -7.6,0.9 -13.2,-5.3 -2.1,-2.4 -4.7,-7.9 -4.7,-13.1 0,-8.1 4.4,-18.1 16.2,-18.1 7.9,0 12.9,5.7 12.9,14.5 v 1.9 z m 13,-2.4 c 1.5,0 3.5,-1 3.5,-4 0,-4.5 -3.4,-7.5 -7.3,-7.5 -4.7,0 -9.2,2.8 -9.2,11.5 z"
   id="path34"
   inkscape:connector-curvature="0"
   style="fill:#0051a7" />
	<path
   class="st2"
   d="m 117.9,355.4 h 1.8 c -0.1,4.9 3.5,7.2 7.6,7.2 4,0 6.4,-3.1 6.4,-6 0,-4.5 -3.6,-6.1 -7.8,-9.1 -5.6,-4.1 -7.9,-5.2 -7.9,-9.8 0,-5.8 5.4,-9.1 11.1,-9.1 2.2,0 5,0.1 8.2,1.2 v 7 h -1.8 c -0.2,-2.4 -2.3,-5.7 -6.3,-5.7 -2.9,0 -5.4,1.7 -5.4,4.5 0,3.3 3.5,5.1 8.6,8.8 6.5,4.6 7.4,7.2 7.4,10.4 0,7.2 -6.5,10.4 -12.6,10.4 -3.8,0 -6.8,-0.6 -9.4,-1.9 v -7.9 z"
   id="path36"
   inkscape:connector-curvature="0"
   style="fill:#0051a7" />
	<path
   class="st2"
   d="m 162.8,332.9 -2.9,1.4 h -7.7 v 18.3 c 0,2.7 0.1,8.3 4.7,8.3 1.9,0 3.7,-0.1 5.4,-0.8 l 0.5,1.8 -8.1,3.2 c -4.9,0 -8.8,-1.5 -8.8,-11 v -19.8 h -5.6 v -3.2 h 5.6 v -7.3 c 1.3,-1.3 2.6,-2.6 4.4,-3.9 h 1.9 v 11.2 h 10.6 z"
   id="path38"
   inkscape:connector-curvature="0"
   style="fill:#0051a7" />
	<path
   class="st2"
   d="m 227.9,345 c 0,7.9 3.7,16.1 13.6,16.1 3.8,0 6.1,-1.7 7.8,-2.5 l 1.1,2.2 -9.1,4.3 h -2.2 c -1.7,0 -7.6,0.9 -13.2,-5.3 -2.1,-2.4 -4.7,-7.9 -4.7,-13.1 0,-8.1 4.4,-18.1 16.2,-18.1 7.9,0 12.9,5.7 12.9,14.5 v 1.9 z m 13,-2.4 c 1.5,0 3.5,-1 3.5,-4 0,-4.5 -3.4,-7.5 -7.3,-7.5 -4.7,0 -9.2,2.8 -9.2,11.5 z"
   id="path40"
   inkscape:connector-curvature="0"
   style="fill:#0051a7" />
	<path
   class="st2"
   d="m 252.9,347.1 c 0,-9.7 7,-18.5 18.6,-18.5 8.7,0 17.3,5.9 17.3,17.9 0,10.1 -7.4,18.5 -18.6,18.5 -8.9,0.1 -17.3,-6 -17.3,-17.9 m 29,-0.2 c 0,-7.7 -3.3,-15.9 -11.4,-15.9 -6,0 -10.7,5.1 -10.7,15.8 0,8.9 4,15.8 11.5,15.8 5.8,0 10.6,-4.9 10.6,-15.7"
   id="path42"
   inkscape:connector-curvature="0"
   style="fill:#0051a7" />
	<path
   class="st2"
   d="m 305.7,335.2 c -0.7,-0.3 -1.5,-0.3 -2.6,-0.3 -2.8,0 -3.3,4.7 -3.3,9.7 v 10.8 c 0,2.3 0,3.3 0.3,4.9 0.3,1.5 2.8,1.6 6.5,1.9 V 364 H 288 v -1.8 c 5.9,-0.8 5.6,-0.6 5.6,-6.9 V 336 c 0,-3.2 -2.2,-2.9 -5.5,-2.9 v -1.8 c 3.8,-0.1 8.4,-1 11.6,-2.9 l 0.1,0.1 v 6.3 l 3.6,-3.8 c 1.7,-1.7 2.6,-2.6 3.8,-2.6 0.6,0 1.5,0.1 2.6,2.1 l 2,3.5 c 0.2,0.4 -0.1,0.7 -0.6,1 l -2,1.3 c -0.4,0.3 -0.7,0.1 -1,-0.1 z"
   id="path44"
   inkscape:connector-curvature="0"
   style="fill:#0051a7" />
	<path
   class="st2"
   d="m 385,365.1 c -1,-1.3 -1.6,-3.4 -1.6,-5.5 l -5.4,3.6 c -1.6,1 -3.6,1.9 -5.7,1.9 -4.6,0 -8.4,-4 -8.4,-9.1 0,-6.6 3.9,-8.7 12,-11.9 l 7.5,-2.9 c 0,-6.1 -1.6,-10.1 -5.9,-10.1 -4.2,0 -5.7,3.8 -7.4,6.3 -0.2,0.3 -0.5,0.3 -0.9,0.3 l -2.4,-0.6 c -0.4,-0.1 -0.6,-0.4 -0.6,-0.9 l 1,-3.7 c 0.4,-1.3 1.2,-1.9 2,-2.2 3.2,-1.2 5.6,-1.7 8.6,-1.7 8.1,0 11.7,3.6 11.7,11.2 v 15.4 c 0,3.6 0.2,6.5 4.9,4.7 l 0.4,1.9 z m -1.6,-21.3 c -6.1,2.3 -13.3,4 -13.3,11.1 0,3.3 2.2,5.9 5.4,5.9 3.6,0 7.9,-2.4 7.9,-11.5 z"
   id="path46"
   inkscape:connector-curvature="0"
   style="fill:#0051a7" />
	<path
   class="st2"
   d="m 337.4,333.6 c 0.8,0.7 2.2,4.1 2.2,7.7 0,5.3 -5.1,11.3 -13.5,11.3 -1.3,0 -2.3,-0.1 -2.8,-0.1 -0.9,0.7 -1.9,1.7 -1.9,2.9 0,1.7 2.8,2 7,2.8 l 6.4,1.3 c 4.9,1 8.5,4.4 8.5,9.5 0,7.1 -7,13 -16.3,13 -9,0 -16.4,-4.6 -16.4,-12.2 0,-1 -0.1,-2.5 0.9,-3.1 l 7.3,-3.9 v -0.1 c -3.1,-0.4 -5.1,-2.2 -4.5,-5.3 l 6.6,-5.4 c -5.3,-2.6 -7.9,-6 -7.9,-11.5 0,-7.4 7.1,-11.3 13.6,-11.3 2.5,0 6.9,0.8 8.8,2.9 m -13.5,31 c -2.8,1.7 -5.6,3.7 -5.6,7.3 0,5.1 4,9 11.1,9 6.4,0 10.4,-4 10.4,-7.9 0,-5.8 -4.9,-6.5 -9.1,-7.3 z m -2.2,-23.8 c 0,4.7 1.7,11.5 7.6,11.3 4.7,-0.2 5.7,-5.2 5.7,-8.4 0,-6.4 -2.5,-11.5 -7,-11.4 -4.9,0.2 -6.3,5.1 -6.3,8.5"
   id="path48"
   inkscape:connector-curvature="0"
   style="fill:#0051a7" />
	<path
   class="st2"
   d="m 334.8,331.1 h 10.4 c 3.8,-0.1 8.5,-1 11.7,-2.9 l 0.1,0.1 v 27.4 c 0,6.3 -0.4,6 5.6,6.9 v 1.8 h -17.4 v -1.8 c 5.9,-0.8 5.6,-0.6 5.6,-6.9 v -19.3 c 0,-3.2 -2.2,-2.9 -5.6,-2.9 h -7.8"
   id="path50"
   inkscape:connector-curvature="0"
   style="fill:#0051a7" />
	<path
   class="st2"
   d="m 222.3,345.1 h -1.8 c -6,0.3 -6,-0.3 -6,6.2 v 10.6 c -4.5,1.7 -10.3,3.2 -16.6,3.2 -14.3,0 -27.1,-6.8 -27.1,-25.5 0,-10.7 9,-24.9 27.8,-24.9 6.7,0 9.9,1.3 13.4,2.4 2,0.6 2.7,1.6 2.7,2.7 v 9 h -1.8 c -0.2,-5.6 -3.8,-11.6 -14.8,-11.6 -14.5,0 -19.3,10 -19.3,21.9 -0.1,11 5.5,23.6 19.6,23.6 8.7,0 9.5,-3.2 9.5,-8.6 v -3.4 c 0,-6.5 0.3,-5.4 -7.4,-6.2 v -1.8 h 22 z"
   id="path52"
   inkscape:connector-curvature="0"
   style="fill:#0051a7" />
	<path
   class="st2"
   d="m 401,362 c 2.1,0 3.7,1.7 3.7,3.8 0,2.1 -1.7,3.8 -3.8,3.8 -2.1,0 -3.8,-1.7 -3.8,-3.8 0.2,-2.1 1.8,-3.8 3.9,-3.8 z m 0,0.7 c -1.6,0 -2.8,1.4 -2.8,3 0,1.7 1.3,3 2.9,3 1.6,0 2.9,-1.3 2.9,-3 -0.1,-1.6 -1.4,-3 -3,-3 z m -0.6,5.3 h -0.9 v -4.2 c 0.3,0 0.7,-0.1 1.3,-0.1 0.7,0 1.2,0.1 1.4,0.3 0.2,0.2 0.4,0.5 0.4,0.9 0,0.5 -0.4,0.9 -0.8,1 v 0 c 0.4,0.1 0.6,0.4 0.7,1 0.1,0.7 0.2,0.9 0.2,1 h -0.9 c -0.1,-0.1 -0.2,-0.5 -0.3,-1.1 -0.1,-0.5 -0.3,-0.6 -0.8,-0.6 h -0.4 v 1.8 z m 0,-2.5 h 0.4 c 0.5,0 0.9,-0.2 0.9,-0.6 0,-0.4 -0.2,-0.6 -0.9,-0.6 -0.2,0 -0.4,0 -0.5,0 v 1.2 z"
   id="path54"
   inkscape:connector-curvature="0"
   style="fill:#0051a7" />
	<line
   class="st3"
   x1="449.60001"
   y1="286.79999"
   x2="449.60001"
   y2="370.70001"
   id="line56"
   style="fill:none;stroke:#0051a7;stroke-width:1.54949999;stroke-linecap:round;stroke-linejoin:round;stroke-dasharray:0, 3.8753" />
	<path
   class="st0"
   d="m 529.6,277.6 c -1.6,0 -2.6,0.6 -2.6,3 v 8.6 c 0,2.3 1,3 2.6,3 1.6,0 2.6,-0.6 2.6,-3 v -8.6 c 0.1,-2.3 -0.9,-3 -2.6,-3"
   id="path58"
   inkscape:connector-curvature="0"
   style="fill:#ff3131" />
	<path
   class="st0"
   d="m 612.5,268.3 c 0,0 -28.5,1.4 -53.4,-13 -25.9,15 -52.9,12.7 -52.9,12.7 0,0 -9,17.1 -9,33.4 h 123.6 c 0,-17.3 -8.3,-33.1 -8.3,-33.1 m -98,23.9 c 1.5,0 2.5,-1.1 2.5,-2.9 V 288 h -2.8 v -3.3 h 6.9 v 10.9 H 519 l -0.6,-1.8 c -1.1,1.2 -2.3,2.1 -3.8,2.1 -3.9,0 -6.7,-1.9 -6.7,-7.1 v -7.6 c 0,-5.2 2.8,-7.1 6.7,-7.1 4.1,0 6.4,2.4 6.5,7.2 h -4 c 0,-2.7 -1,-3.6 -2.5,-3.6 -1.6,0 -2.6,0.6 -2.6,3 v 8.6 c -0.1,2.3 0.9,2.9 2.5,2.9 m 21.8,-3.5 c 0,5.2 -2.8,7.1 -6.7,7.1 -3.9,0 -6.7,-1.9 -6.7,-7.1 v -7.6 c 0,-5.2 2.8,-7.1 6.7,-7.1 3.9,0 6.7,1.9 6.7,7.1 z m 26.4,6.8 h -3.9 l -3,-14.5 h -0.1 l -3.2,14.5 h -3.9 l -4.4,-21.2 h 3.8 l 2.8,13.8 h 0.1 l 2.9,-13.8 h 3.9 l 2.9,13.8 h 0.1 l 2.8,-13.8 h 3.8 z m 17.4,0 h -11.4 v -21.2 h 11.1 v 3.6 h -7 v 4.9 h 5.4 v 3.6 h -5.4 v 5.6 h 7.3 z m 8.1,0.3 c -3.3,0 -5.8,-1.8 -6.9,-6 l 4,-0.8 c 0.5,2.6 1.9,3.5 3.1,3.5 1.4,0 2.5,-0.9 2.5,-2.5 0,-4 -9,-4 -9,-10 0,-3.6 2.2,-5.9 6.4,-5.9 3.6,0 5.8,2.1 6.5,5.1 l -3.6,1.1 c -0.7,-2 -1.6,-2.8 -3,-2.8 -1.4,0 -2.2,0.9 -2.2,2.3 0,3.2 9,3.4 9,10.1 0,3.5 -2.5,5.9 -6.8,5.9 m 21.4,-17.9 h -4.7 v 17.6 h -4 v -17.6 h -4.7 v -3.6 h 13.5 v 3.6 z"
   id="path60"
   inkscape:connector-curvature="0"
   style="fill:#ff3131" />
	<path
   class="st2"
   d="M 620.9,304.8 H 497.1 c -2,70.9 61.9,82 61.9,82 67.9,-14.3 61.9,-82 61.9,-82 m -99.8,47.9 c -6.9,-2 -12,-7.5 -13.4,-14.2 -1.8,-10 -2.7,-20 -2.4,-29.9 2.7,0 5.4,0 8.1,0 -0.4,10.6 0.3,21.3 1.9,31.9 0.5,3.1 2,5 4.7,5.6 2.7,0.6 3.8,-0.7 3.4,-4 -1.3,-11.2 -1.8,-22.4 -1.4,-33.5 2.7,0 5.4,0 8.1,0 -0.4,11.3 0,22.9 1,34.4 0.7,8 -3.1,11.6 -10,9.7 m 44.2,23.5 c -1.3,-14.5 -3.5,-29.5 -5.9,-44.5 -0.1,0 -0.1,0 -0.2,0 -2.3,15 -4.5,30 -6.1,44.7 -2.4,-0.1 -4.8,-0.4 -7.2,-0.7 -4.6,-22.6 -9.8,-45.5 -12.9,-67 3.1,0 6.2,0 9.3,0 1.8,14.1 4.2,28.5 6.5,43 0.1,0 0.1,0 0.2,0 1.7,-14.3 3.9,-28.7 6.1,-43 2.7,0 5.5,0 8.2,0 2.4,14.2 4.7,28.7 6.3,42.8 0.1,0 0.1,0 0.2,0 2.3,-14.4 4.5,-28.8 6,-42.8 3.1,0 6.2,0 9.3,0 -2.6,21.3 -7.6,44 -12.5,66.5 -2.5,0.4 -4.9,0.7 -7.3,1 m 17,-20.3 h -1 v 2.8 h -0.7 v -2.8 h -1 v -0.6 h 2.6 v 0.6 z m 3.7,2.8 h -0.6 v -2.6 l -0.7,2.6 h -0.6 l -0.7,-2.6 v 2.6 h -0.6 v -3.3 h 1 l 0.6,2.3 0.6,-2.3 h 1 z M 610.4,319 c 0,0.8 -0.1,1.7 -0.1,2.5 -2.5,0.3 -5,0.5 -7.5,0.8 0.2,-6.3 -1.3,-7.9 -4.5,-7.8 -2,0.1 -3.5,1.2 -3.6,5 -0.1,7.6 -0.6,15.2 -1.5,22.8 -0.3,2.8 0.3,4.5 2.9,3.9 3,-0.7 4.4,-2.7 5,-6.9 0.2,-1.4 0.4,-2.7 0.5,-4.1 -1.6,0.3 -3.3,0.6 -4.9,0.8 0.2,-2 0.4,-4 0.5,-5.9 4.3,-0.5 8.5,-1.2 12.7,-1.9 -0.8,6.8 -2,13.6 -3.7,20.3 -1.2,0.4 -2.3,0.8 -3.5,1.2 -0.2,-0.9 -0.4,-1.8 -0.7,-2.7 -2.7,3.2 -4.7,5 -8.1,5.9 -5.8,1.6 -9.2,-2.2 -8.6,-9.5 0.7,-7.9 1.1,-15.8 1.1,-23.7 0,-6.5 3.7,-11.7 11.6,-11.7 8.4,0.1 12.7,5.1 12.4,11"
   id="path62"
   inkscape:connector-curvature="0"
   style="fill:#0051a7" />
</g>
</svg>