<?xml version="1.0" encoding="UTF-8" standalone="no"?><svg width="57" height="32" viewBox="0 0 57 32" xmlns="http://www.w3.org/2000/svg" xmlns:xlink="http://www.w3.org/1999/xlink"><svg id="facebook" data-name="Layer 1" width="17.16" height="32" version="1.1" viewBox="-1 -1 17.16 32" x="38.91" xmlns="http://www.w3.org/2000/svg"><defs id="adefs4"><style id="astyle2">.acls-1{fill:#fff}</style></defs><path class="acls-1" d="M15.16.231v4.777h-2.736a2.535 2.535 0 0 0-2.035.65A3.042 3.042 0 0 0 9.861 7.6v3.406h5.134l-.714 5.334h-4.42V30H4.477V16.326H0v-5.334h4.477V7.043q0-3.349 1.82-5.198A6.426 6.426 0 0 1 11.162.01a28.255 28.255 0 0 1 3.998.221z" id="apath8" fill="#fff" stroke-width="1"/></svg><svg id="twitter" data-name="Layer 1" width="38.91" height="32" version="1.1" viewBox="-1 -1 38.91 32" xmlns="http://www.w3.org/2000/svg"><defs id="bdefs4"><style id="bstyle2">.bcls-1{fill:#fff}</style></defs><path class="bcls-1" d="M36.912 3.566a15.847 15.847 0 0 1-3.792 3.935v.984a21.493 21.493 0 0 1-.891 6.08 21.963 21.963 0 0 1-2.68 5.797 22.883 22.883 0 0 1-4.32 4.933 19.247 19.247 0 0 1-6.046 3.421A22.099 22.099 0 0 1 11.613 30 21.008 21.008 0 0 1 0 26.585a16.19 16.19 0 0 0 1.825.093 14.813 14.813 0 0 0 9.388-3.23 7.578 7.578 0 0 1-7.071-5.246 9.588 9.588 0 0 0 1.425.114 7.842 7.842 0 0 0 1.99-.257 7.442 7.442 0 0 1-4.342-2.616 7.307 7.307 0 0 1-1.718-4.812v-.093a7.5 7.5 0 0 0 3.422.955A7.556 7.556 0 0 1 2.459 8.8a7.371 7.371 0 0 1-.912-3.614 7.414 7.414 0 0 1 1.034-3.8 21.443 21.443 0 0 0 6.922 5.582A21.08 21.08 0 0 0 18.2 9.269a8.405 8.405 0 0 1-.186-1.732 7.293 7.293 0 0 1 2.139-5.332 7.585 7.585 0 0 1 10.693 0l.15.157a14.835 14.835 0 0 0 4.883-1.79 7.343 7.343 0 0 1-3.33 4.17 15.07 15.07 0 0 0 4.363-1.176z" id="bpath8" fill="#fff" stroke-width="1"/></svg></svg>