<svg xmlns="http://www.w3.org/2000/svg" viewBox="0 0 5.232 9.247" height="34.95" width="19.776"><defs><filter id="a" color-interpolation-filters="sRGB"><feColorMatrix values="1.61 2.97 -0.83 1.66667 0 1.61 2.97 -0.83 1.66667 0 1.61 2.97 -0.83 1.66667 0 0 0 0 1 0"/></filter></defs><g transform="translate(120.082 5.847) scale(.21406)" filter="url(#a)"><path transform="translate(-558.949 -23.714) scale(1.23605)" d="M8.875 12.783c-3.673-.955-4.854-1.934-4.854-3.471 0-1.764 1.626-3.002 4.369-3.002 2.88 0 3.948 1.376 4.045 3.398h3.576c-.106-2.79-1.813-5.331-5.194-6.164V0H5.963v3.495C2.823 4.183.299 6.205.299 9.336c0 3.738 3.099 5.599 7.605 6.683 4.053.97 4.854 2.386 4.854 3.907 0 1.109-.784 2.889-4.368 2.889-3.334 0-4.652-1.497-4.822-3.398H0c.202 3.543 2.848 5.525 5.963 6.197v3.511h4.854v-3.479c3.147-.607 5.663-2.427 5.663-5.752 0-4.58-3.932-6.149-7.605-7.111z" filter="url(#a)"/></g><path d="M1034.605 945.78h42.333" fill="none" stroke="#e6e6e6" stroke-width=".132"/></svg>