<svg xmlns="http://www.w3.org/2000/svg" xmlns:xlink="http://www.w3.org/1999/xlink" width="100.501" height="33.386" viewBox="0 0 26.591 8.833"><defs><linearGradient xlink:href="#a" id="d" gradientUnits="userSpaceOnUse" gradientTransform="translate(-1.425 -35.407)" x1="-386.217" y1="-1323.553" x2="-391.81" y2="-1326.921"/><linearGradient id="a"><stop offset="0" stop-color="#65b3a0"/><stop offset="1" stop-color="#86c154"/></linearGradient><clipPath clipPathUnits="userSpaceOnUse" id="b"><path d="M-384.701-1355.905c-.539-.24-.06-3.626-6.455-7.367v-5.028l9.027.936 5.122 5.495-2.011 5.964z" fill="none" stroke="#000" stroke-width=".265"/></clipPath><clipPath clipPathUnits="userSpaceOnUse" id="c"><rect width="3.957" height="7.947" x="-1358.124" y="383.686" ry=".298" rx=".298" transform="rotate(90)" fill="none" stroke="#2c8dd5" stroke-width=".387" stroke-linecap="round" stroke-linejoin="round" paint-order="markers stroke fill"/></clipPath></defs><text transform="matrix(1.02002 0 0 .98037 -17.451 1029.484)" y="-1046.783" x="28.204" style="line-height:1.25;-inkscape-font-specification:'Candara Bold';font-variant-ligatures:normal;font-variant-caps:normal;font-variant-numeric:normal;font-feature-settings:normal;text-align:start" font-weight="700" font-size="4.233" font-family="Candara" letter-spacing=".397" word-spacing="0" fill="#fff" stroke-width=".265"><tspan style="-inkscape-font-specification:'Candara Bold';font-variant-ligatures:normal;font-variant-caps:normal;font-variant-numeric:normal;font-feature-settings:normal;text-align:start" y="-1046.783" x="28.204">RAPHA </tspan><tspan style="-inkscape-font-specification:'Candara Bold';font-variant-ligatures:normal;font-variant-caps:normal;font-variant-numeric:normal;font-feature-settings:normal;text-align:start" y="-1041.492" x="28.204">WALK</tspan></text><g stroke-width="1.409"><g transform="matrix(.71 0 0 .70988 279.873 970.296)"><g clip-path="url(#b)" fill="none" stroke="#2c8dd5" stroke-width=".546" stroke-linecap="round" stroke-linejoin="round" paint-order="markers stroke fill"><rect rx=".419" ry=".419" y="-1366.568" x="-389.797" height="7.938" width="3.969"/><rect transform="rotate(90)" width="3.969" height="3.969" x="-1362.599" y="381.86" ry=".419" rx=".419"/></g><rect rx=".419" ry=".419" y="-1362.604" x="-389.62" height="7.947" width="3.6" clip-path="url(#c)" fill="none" stroke="#65b3a0" stroke-width=".52" stroke-linecap="round" stroke-linejoin="round" paint-order="markers stroke fill"/><path d="M-392.841-1363.018a5.565 5.565 0 00-1.33.12s-.56 3.975 4.444 4.303c0 0 1.956-.03 2.923.273-.775-.935-2.443-2.015-5.799-3.136a.066.066 0 01.008-.129.066.066 0 01.034 0c3.564 1.192 5.254 2.339 5.99 3.348a.592.592 0 01.258.2l.468 1.264v-1.357s-2.843-4.763-6.996-4.89z" fill="url(#d)"/></g><path fill="#fff" paint-order="markers stroke fill" d="M5.685 3.223h.919v2.392h-.92z"/></g></svg>