<svg xmlns="http://www.w3.org/2000/svg" xmlns:xlink="http://www.w3.org/1999/xlink" viewBox="0 0 26.591 8.833" height="33.386" width="100.501"><defs><linearGradient y2="-1326.921" x2="-391.81" y1="-1323.553" x1="-386.217" gradientTransform="translate(-1.425 -35.407)" gradientUnits="userSpaceOnUse" id="d" xlink:href="#a"/><linearGradient id="a"><stop offset="0" stop-color="#65b3a0"/><stop offset="1" stop-color="#86c154"/></linearGradient><clipPath id="b" clipPathUnits="userSpaceOnUse"><path d="M-384.701-1355.905c-.539-.24-.06-3.626-6.455-7.367v-5.028l9.027.936 5.122 5.495-2.011 5.964z" fill="none" stroke="#000" stroke-width=".265"/></clipPath><clipPath id="c" clipPathUnits="userSpaceOnUse"><rect transform="rotate(90)" rx=".298" ry=".298" y="383.686" x="-1358.124" height="7.947" width="3.957" fill="none" stroke="#2c8dd5" stroke-width=".387" stroke-linecap="round" stroke-linejoin="round" paint-order="markers stroke fill"/></clipPath></defs><text style="line-height:1.25;-inkscape-font-specification:'Candara Bold';font-variant-ligatures:normal;font-variant-caps:normal;font-variant-numeric:normal;font-feature-settings:normal;text-align:start" x="28.204" y="-1046.783" transform="matrix(1.02002 0 0 .98037 -17.451 1029.484)" font-weight="700" font-size="4.233" font-family="Candara" letter-spacing=".397" word-spacing="0" fill="#fff" stroke-width=".265"><tspan x="28.204" y="-1046.783" style="-inkscape-font-specification:'Candara Bold';font-variant-ligatures:normal;font-variant-caps:normal;font-variant-numeric:normal;font-feature-settings:normal;text-align:start">RAPHA </tspan><tspan x="28.204" y="-1041.492" style="-inkscape-font-specification:'Candara Bold';font-variant-ligatures:normal;font-variant-caps:normal;font-variant-numeric:normal;font-feature-settings:normal;text-align:start">WALK</tspan></text><g stroke-width="1.409"><g transform="matrix(.71 0 0 .70988 279.873 970.296)"><g clip-path="url(#b)" fill="none" stroke="#2c8dd5" stroke-width=".546" stroke-linecap="round" stroke-linejoin="round" paint-order="markers stroke fill"><rect width="3.969" height="7.938" x="-389.797" y="-1366.568" ry=".419" rx=".419"/><rect rx=".419" ry=".419" y="381.86" x="-1362.599" height="3.969" width="3.969" transform="rotate(90)"/></g><rect clip-path="url(#c)" width="3.6" height="7.947" x="-389.62" y="-1362.604" ry=".419" rx=".419" fill="none" stroke="#65b3a0" stroke-width=".52" stroke-linecap="round" stroke-linejoin="round" paint-order="markers stroke fill"/><path d="M-392.841-1363.018a5.565 5.565 0 00-1.33.12s-.56 3.975 4.444 4.303c0 0 1.956-.03 2.923.273-.775-.935-2.443-2.015-5.799-3.136a.066.066 0 01.008-.129.066.066 0 01.034 0c3.564 1.192 5.254 2.339 5.99 3.348a.592.592 0 01.258.2l.468 1.264v-1.357s-2.843-4.763-6.996-4.89z" fill="url(#d)"/></g><path fill="#1a1a1a" paint-order="markers stroke fill" d="M5.685 3.223h.919v2.392h-.92z"/></g></svg>