<svg xmlns="http://www.w3.org/2000/svg" viewBox="0 0 10.262 10.262" height="38.787" width="38.787"><defs><filter id="a" color-interpolation-filters="sRGB"><feColorMatrix values="1.61 2.97 -0.83 0.833333 0 1.61 2.97 -0.83 0.833333 0 1.61 2.97 -0.83 0.833333 0 0 0 0 1 0"/></filter></defs><g transform="translate(.855 .855) scale(.17104)" filter="url(#a)" fill="none"><path d="M0 0h50v50H0z"/><path stroke-miterlimit="10" d="M32 5.499a4.5 4.5 0 109 .002 4.5 4.5 0 00-9-.002zm-12.668 21.06l-4.076 5.895s-6.795.473-9.226.615c-1.86.109-2.979.804-2.979 2.01 0 1.206.942 1.884 3.624 2.099 2.261.181 9.988.652 9.988.652h.024c.903 0 1.849-.479 2.47-1.396l3.978-5.681" stroke="#000" stroke-width="2" stroke-linecap="round" stroke-linejoin="round"/><path stroke-miterlimit="10" d="M34.842 31.451l-6.904-4.731 7.025-11.253c.402-.6.682-2.203.083-2.607L31.1 10.211a2.241 2.241 0 00-.984-.5l-7.892-1.716a2.3 2.3 0 00-1.754.339l-6.489 5.012c-1.066.923-2.088 2.077-1.385 3.115.451.671 1.991.289 2.799-.202l6.811-3.617 4.484.977-6.047 8.986c-1.387 2.401-1.848 4.253.647 6.378l8.594 5.683-3.593 8.87c-1.355 3.251-1.112 4.918-.184 5.311.928.393 2.293-.059 4.222-3.596l5.463-10.44a2.728 2.728 0 00-.95-3.36z" stroke="#000" stroke-width="2" stroke-linecap="round" stroke-linejoin="round"/><path stroke-miterlimit="10" d="M33.084 19.029l1.742 4.181c.324.728 1.06 1.435 1.852 1.53 0 0 5.533-.119 7.043-.202 1.587-.086 3.365-.384 3.404-1.471.058-1.558-1.413-1.673-2.842-1.776l-5.581-.474-3.308-7.497" stroke="#000" stroke-width="2" stroke-linecap="round" stroke-linejoin="round"/></g></svg>