<svg xmlns="http://www.w3.org/2000/svg" version="1.1" id="layer" x="0" y="0" xml:space="preserve" width="599.935" height="131.5"><style type="text/css" id="style2">.st0{fill:#ff3131}.st2{fill:#0051a7}</style><g id="g64" transform="translate(-21.1 -255.3)"><path class="st0" d="M352 324.7c13.4-4.8 13.4-23.7-1.3-33-3.8-2.4-8.2-6.6-5.9-12.4-4.4 3.3-5.4 7.5-4.2 11.4 6.3.6 15.4 8.3 13 19.4.8-6.3-3.2-14.6-10.7-17.3-2.2-.8-7-1.5-9.9-1.7-4.9-.3-7.8-3.1-6.5-7.2-4.8 4.5-2.6 12.2 2.8 16 4.8 3.4 9.9 2.7 13.2 10.1-2.9-3.7-7.2-5.3-10.4-5.7-3.2-.3-8.6-2.2-8.2-6.6-4.3 5.9-1.1 14.1 7.6 15.3 2.5.4 11 .3 13.7 6.3-.9-2-8.6-2.7-9.6-4.1-.9 9.7 10.1 12.2 16.4 9.5" id="path4" fill="#ff3131"/><path d="M352 324.7c13.4-4.8 13.4-23.7-1.3-33-3.8-2.4-8.2-6.6-5.9-12.4-4.4 3.3-5.4 7.5-4.2 11.4 6.3.6 15.4 8.3 13 19.4.8-6.3-3.2-14.6-10.7-17.3-2.2-.8-7-1.5-9.9-1.7-4.9-.3-7.8-3.1-6.5-7.2-4.8 4.5-2.6 12.2 2.8 16 4.8 3.4 9.9 2.7 13.2 10.1-2.9-3.7-7.2-5.3-10.4-5.7-3.2-.3-8.6-2.2-8.2-6.6-4.3 5.9-1.1 14.1 7.6 15.3 2.5.4 11 .3 13.7 6.3-.9-2-8.6-2.7-9.6-4.1-.9 9.7 10.1 12.2 16.4 9.5z" id="path6" fill="none" stroke="#fff" stroke-width=".145" stroke-linejoin="round"/><path class="st2" d="M76.5 300c0 3.7 1.3 6.6 5.7 6.6 4.1 0 6.5-2.1 6.5-6.9v-8.4c0-.8-.1-1.4-.2-2-.2-1-1.1-1.4-2.9-1.5v-.9h7.9v.9c-1.8.1-2.7.5-2.9 1.5-.1.6-.2 1.2-.2 2v8.7c0 6.1-4.4 8.5-8.9 8.5-7.6 0-9.9-3.3-9.9-8.7v-9.4c0-.8 0-1.3-.1-1.9-.1-.5-1.3-.7-2.8-.8v-.9h10.7v.9c-1.5.1-2.7.2-2.8.8-.1.6-.1 1-.1 1.9z" id="path8" fill="#0051a7"/><path class="st2" d="M114.1 308.1c-4.1-4.7-9.8-11.2-14.8-16.6h-.1v12.2c0 .8.1 1.4.2 2 .2 1 1.1 1.4 3.7 1.5v.9h-8.6v-.9c1.8-.1 2.7-.5 2.9-1.5.1-.6.2-1.2.2-2v-13.4c-.9-1.4-2.3-2.4-4.3-2.4v-.9h7.9c4.2 4.8 9.4 10.7 13.9 15.6h.1v-11.2c0-.8-.1-1.4-.2-2-.1-1-1-1.4-3.6-1.5v-.9h8.5v.9c-1.8.1-2.7.5-2.9 1.5-.1.6-.2 1.2-.2 2v16.8h-2.7z" id="path10" fill="#0051a7"/><path class="st2" d="M129.2 304.5c0 .8 0 1.3.1 1.9.1.5 1.3.7 2.8.8v.9h-10.7v-.9c1.5-.1 2.7-.2 2.8-.8.1-.6.1-1 .1-1.9v-14.1c0-.8 0-1.3-.1-1.9-.1-.5-1.3-.7-2.8-.8v-.9h10.7v.9c-1.5.1-2.7.2-2.8.8-.1.6-.1 1-.1 1.9z" id="path12" fill="#0051a7"/><path class="st2" d="M142.9 287.8c-1.7 0-2.8.5-2.1 2.5 1.5 4 3.3 8.9 5.1 13.4 1.9-4.3 3.8-8.7 5.7-13 .9-2.2-.1-2.9-2.2-2.9v-.9h7.6v.9c-1.2 0-2.4.5-3.1 1.9-2.7 6.1-5.4 12.2-8.1 18.4h-3c-1.7-4.4-4.9-12.6-6.4-16.3-1-2.5-2.3-4.1-4.1-4.1v-.9h10.6z" id="path14" fill="#0051a7"/><path class="st2" d="M157.1 307.2c1.5-.1 2.7-.2 2.8-.8.1-.6.1-1 .1-1.9v-14.1c0-.8 0-1.3-.1-1.9-.1-.5-1.3-.7-2.8-.8v-.9h16.6v4.9h-.9c-.5-2.2-1.3-3.8-3.7-3.8h-4.3v8.5h2.8c2.1 0 3.1-1.2 3.1-2.9h.9v7.1h-.9c-.1-1.7-.8-3-3.1-3h-2.8v6.9c0 2.3 1.3 2.5 4 2.5 4.3 0 4.9-1.7 6.4-4.4h.9l-1 5.5h-18z" id="path16" fill="#0051a7"/><path class="st2" d="M177.8 286.9h11.9c3.9 0 7.3 1.7 7.3 5.4 0 2.8-2.1 5-5 5.9l3.5 4.8c1.6 2.1 3.3 4.1 4.2 4.7v.5h-4.9c-2 0-4.1-5.2-6.7-9.4h-2.5v5.8c0 .8 0 1.3.1 1.9.1.5 1.3.7 2.8.8v.9h-10.7v-.9c1.5-.1 2.7-.2 2.8-.8.1-.6.1-1 .1-1.9v-14.1c0-.8 0-1.3-.1-1.9-.1-.5-1.3-.7-2.8-.8zm7.7 10.7h2.4c3 0 4-2.3 4-5.1 0-3.3-1.7-4.4-4-4.4h-2.4z" id="path18" fill="#0051a7"/><path class="st2" d="M214.6 291.6c-.6-1.9-1.9-4-4.5-4-1.5 0-3.3.8-3.3 3.1 0 2.1 2.3 3.2 6 5.7 3.5 2.3 4.5 4 4.5 6.3 0 3.7-4.1 5.7-9 5.7-2.8 0-4.7-.4-6.4-1-.1-.1-.2-.2-.2-.4v-4.6h.9c.6 2.8 2.5 4.9 5.4 4.9 2.2 0 4.2-1.6 4.2-3.8 0-2-1-3.4-5.7-6.1-2.5-1.5-4.6-3.1-4.6-5.8 0-3 3.2-5.1 7.9-5.1 2.2 0 3.9.1 5.6.5.2.1.3.3.3.4v4.2z" id="path20" fill="#0051a7"/><path class="st2" d="M227.6 304.5c0 .8 0 1.3.1 1.9.1.5 1.3.7 2.8.8v.9h-10.7v-.9c1.5-.1 2.7-.2 2.8-.8.1-.6.1-1 .1-1.9v-14.1c0-.8 0-1.3-.1-1.9-.1-.5-1.3-.7-2.8-.8v-.9h10.7v.9c-1.5.1-2.7.2-2.8.8-.1.6-.1 1-.1 1.9z" id="path22" fill="#0051a7"/><path class="st2" d="M245.2 304.5c0 .8 0 1.3.1 1.9.1.5 1.3.7 2.8.8v.9h-10.7v-.9c1.5-.1 2.7-.2 2.8-.8.1-.6.1-1 .1-1.9V288h-2.8c-2.9 0-3.6 1.6-4.9 3.5h-.9l.9-4.6h20.3l.9 4.6h-.9c-1.3-1.9-2-3.5-4.9-3.5h-2.9v16.5z" id="path24" fill="#0051a7"/><path class="st2" d="M270.4 308.1h-10.7v-.9c1.5-.1 2.7-.2 2.8-.8.1-.6.1-1 .1-1.9v-4.6l-5.3-9.5c-1-1.9-2.2-2.6-3.8-2.6v-.9h10.1v.9c-2.6 0-2.3 1-1.5 2.6l4.2 7.7 4.7-7.6c1.1-1.9-.1-2.7-2.1-2.7v-.9h7.3v.9c-.9 0-1.8.3-2.7 1.7l-5.6 9c-.4.7-.6 1.6-.6 2.5v3.5c0 .8 0 1.3.1 1.9.1.5 1.3.7 2.8.8v.9z" id="path26" fill="#0051a7"/><path class="st2" d="M279.7 300.6c0-3.8 3.3-9.5 8.1-9.5 3.8 0 4.7 2.6 4.7 5.2 0 3.2-2.5 9.9-8.1 9.9-3.7.1-4.7-2.9-4.7-5.6m10.1-5.6c0-3-1.8-3.1-2.3-3.1-3.1 0-5.2 5.6-5.2 9.4 0 1.5.3 4.2 2.4 4.2 3.4-.1 5.1-5.5 5.1-10.5" id="path28" fill="#0051a7"/><path class="st2" d="M304.6 292.1l-.7.6h-3.8c-1.4 6.9-3.7 16-5.4 20.4h-1.3l4.1-20.4h-2.7l.3-1.2h2.7c1.5-6.2 6.6-6.8 7.8-6.8.7 0 2.1.1 2.5.5l-.3 1.9-.7.3c-.4-.8-1.3-1.7-2.5-1.7-1.7 0-3 1.2-3.7 4.3l-.3 1.4h4.2z" id="path30" fill="#0051a7"/><path class="st2" d="M39.3 317.4c-4.4 0-6 1.8-4.6 6.5l8.3 29.9h.1l14-37.6h2.6l13.8 37.1h.1c3.1-9.7 6.1-19.6 9.1-29.5 1.3-4.3.1-6.4-5.5-6.5v-1.8h15.3v1.8c-2.1 0-4.9 1.6-6.1 5.4l-12.9 41.5h-3.2l-14-37.8-13.9 37.8h-3L29 327c-1.9-6.8-4.2-9.7-7.9-9.7v-1.8h18.2z" id="path32" fill="#0051a7"/><path class="st2" d="M91.9 345c0 7.9 3.7 16.1 13.6 16.1 3.8 0 6.1-1.7 7.8-2.5l1.1 2.2-9.1 4.3h-2.2c-1.7 0-7.6.9-13.2-5.3-2.1-2.4-4.7-7.9-4.7-13.1 0-8.1 4.4-18.1 16.2-18.1 7.9 0 12.9 5.7 12.9 14.5v1.9zm13-2.4c1.5 0 3.5-1 3.5-4 0-4.5-3.4-7.5-7.3-7.5-4.7 0-9.2 2.8-9.2 11.5z" id="path34" fill="#0051a7"/><path class="st2" d="M117.9 355.4h1.8c-.1 4.9 3.5 7.2 7.6 7.2 4 0 6.4-3.1 6.4-6 0-4.5-3.6-6.1-7.8-9.1-5.6-4.1-7.9-5.2-7.9-9.8 0-5.8 5.4-9.1 11.1-9.1 2.2 0 5 .1 8.2 1.2v7h-1.8c-.2-2.4-2.3-5.7-6.3-5.7-2.9 0-5.4 1.7-5.4 4.5 0 3.3 3.5 5.1 8.6 8.8 6.5 4.6 7.4 7.2 7.4 10.4 0 7.2-6.5 10.4-12.6 10.4-3.8 0-6.8-.6-9.4-1.9v-7.9z" id="path36" fill="#0051a7"/><path class="st2" d="M162.8 332.9l-2.9 1.4h-7.7v18.3c0 2.7.1 8.3 4.7 8.3 1.9 0 3.7-.1 5.4-.8l.5 1.8-8.1 3.2c-4.9 0-8.8-1.5-8.8-11v-19.8h-5.6v-3.2h5.6v-7.3c1.3-1.3 2.6-2.6 4.4-3.9h1.9v11.2h10.6z" id="path38" fill="#0051a7"/><path class="st2" d="M227.9 345c0 7.9 3.7 16.1 13.6 16.1 3.8 0 6.1-1.7 7.8-2.5l1.1 2.2-9.1 4.3h-2.2c-1.7 0-7.6.9-13.2-5.3-2.1-2.4-4.7-7.9-4.7-13.1 0-8.1 4.4-18.1 16.2-18.1 7.9 0 12.9 5.7 12.9 14.5v1.9zm13-2.4c1.5 0 3.5-1 3.5-4 0-4.5-3.4-7.5-7.3-7.5-4.7 0-9.2 2.8-9.2 11.5z" id="path40" fill="#0051a7"/><path class="st2" d="M252.9 347.1c0-9.7 7-18.5 18.6-18.5 8.7 0 17.3 5.9 17.3 17.9 0 10.1-7.4 18.5-18.6 18.5-8.9.1-17.3-6-17.3-17.9m29-.2c0-7.7-3.3-15.9-11.4-15.9-6 0-10.7 5.1-10.7 15.8 0 8.9 4 15.8 11.5 15.8 5.8 0 10.6-4.9 10.6-15.7" id="path42" fill="#0051a7"/><path class="st2" d="M305.7 335.2c-.7-.3-1.5-.3-2.6-.3-2.8 0-3.3 4.7-3.3 9.7v10.8c0 2.3 0 3.3.3 4.9.3 1.5 2.8 1.6 6.5 1.9v1.8H288v-1.8c5.9-.8 5.6-.6 5.6-6.9V336c0-3.2-2.2-2.9-5.5-2.9v-1.8c3.8-.1 8.4-1 11.6-2.9l.1.1v6.3l3.6-3.8c1.7-1.7 2.6-2.6 3.8-2.6.6 0 1.5.1 2.6 2.1l2 3.5c.2.4-.1.7-.6 1l-2 1.3c-.4.3-.7.1-1-.1z" id="path44" fill="#0051a7"/><path class="st2" d="M385 365.1c-1-1.3-1.6-3.4-1.6-5.5l-5.4 3.6c-1.6 1-3.6 1.9-5.7 1.9-4.6 0-8.4-4-8.4-9.1 0-6.6 3.9-8.7 12-11.9l7.5-2.9c0-6.1-1.6-10.1-5.9-10.1-4.2 0-5.7 3.8-7.4 6.3-.2.3-.5.3-.9.3l-2.4-.6c-.4-.1-.6-.4-.6-.9l1-3.7c.4-1.3 1.2-1.9 2-2.2 3.2-1.2 5.6-1.7 8.6-1.7 8.1 0 11.7 3.6 11.7 11.2v15.4c0 3.6.2 6.5 4.9 4.7l.4 1.9zm-1.6-21.3c-6.1 2.3-13.3 4-13.3 11.1 0 3.3 2.2 5.9 5.4 5.9 3.6 0 7.9-2.4 7.9-11.5z" id="path46" fill="#0051a7"/><path class="st2" d="M337.4 333.6c.8.7 2.2 4.1 2.2 7.7 0 5.3-5.1 11.3-13.5 11.3-1.3 0-2.3-.1-2.8-.1-.9.7-1.9 1.7-1.9 2.9 0 1.7 2.8 2 7 2.8l6.4 1.3c4.9 1 8.5 4.4 8.5 9.5 0 7.1-7 13-16.3 13-9 0-16.4-4.6-16.4-12.2 0-1-.1-2.5.9-3.1l7.3-3.9v-.1c-3.1-.4-5.1-2.2-4.5-5.3l6.6-5.4c-5.3-2.6-7.9-6-7.9-11.5 0-7.4 7.1-11.3 13.6-11.3 2.5 0 6.9.8 8.8 2.9m-13.5 31c-2.8 1.7-5.6 3.7-5.6 7.3 0 5.1 4 9 11.1 9 6.4 0 10.4-4 10.4-7.9 0-5.8-4.9-6.5-9.1-7.3zm-2.2-23.8c0 4.7 1.7 11.5 7.6 11.3 4.7-.2 5.7-5.2 5.7-8.4 0-6.4-2.5-11.5-7-11.4-4.9.2-6.3 5.1-6.3 8.5" id="path48" fill="#0051a7"/><path class="st2" d="M334.8 331.1h10.4c3.8-.1 8.5-1 11.7-2.9l.1.1v27.4c0 6.3-.4 6 5.6 6.9v1.8h-17.4v-1.8c5.9-.8 5.6-.6 5.6-6.9v-19.3c0-3.2-2.2-2.9-5.6-2.9h-7.8" id="path50" fill="#0051a7"/><path class="st2" d="M222.3 345.1h-1.8c-6 .3-6-.3-6 6.2v10.6c-4.5 1.7-10.3 3.2-16.6 3.2-14.3 0-27.1-6.8-27.1-25.5 0-10.7 9-24.9 27.8-24.9 6.7 0 9.9 1.3 13.4 2.4 2 .6 2.7 1.6 2.7 2.7v9h-1.8c-.2-5.6-3.8-11.6-14.8-11.6-14.5 0-19.3 10-19.3 21.9-.1 11 5.5 23.6 19.6 23.6 8.7 0 9.5-3.2 9.5-8.6v-3.4c0-6.5.3-5.4-7.4-6.2v-1.8h22z" id="path52" fill="#0051a7"/><path class="st2" d="M401 362c2.1 0 3.7 1.7 3.7 3.8 0 2.1-1.7 3.8-3.8 3.8-2.1 0-3.8-1.7-3.8-3.8.2-2.1 1.8-3.8 3.9-3.8zm0 .7c-1.6 0-2.8 1.4-2.8 3 0 1.7 1.3 3 2.9 3 1.6 0 2.9-1.3 2.9-3-.1-1.6-1.4-3-3-3zm-.6 5.3h-.9v-4.2c.3 0 .7-.1 1.3-.1.7 0 1.2.1 1.4.3.2.2.4.5.4.9 0 .5-.4.9-.8 1 .4.1.6.4.7 1 .1.7.2.9.2 1h-.9c-.1-.1-.2-.5-.3-1.1-.1-.5-.3-.6-.8-.6h-.4v1.8zm0-2.5h.4c.5 0 .9-.2.9-.6 0-.4-.2-.6-.9-.6h-.5v1.2z" id="path54" fill="#0051a7"/><path id="line56" fill="none" stroke="#0051a7" stroke-width="1.549" stroke-linecap="round" stroke-linejoin="round" stroke-dasharray="0,3.8753" d="M449.6 286.8v83.9"/><path class="st0" d="M529.6 277.6c-1.6 0-2.6.6-2.6 3v8.6c0 2.3 1 3 2.6 3s2.6-.6 2.6-3v-8.6c.1-2.3-.9-3-2.6-3" id="path58" fill="#ff3131"/><path class="st0" d="M612.5 268.3s-28.5 1.4-53.4-13c-25.9 15-52.9 12.7-52.9 12.7s-9 17.1-9 33.4h123.6c0-17.3-8.3-33.1-8.3-33.1m-98 23.9c1.5 0 2.5-1.1 2.5-2.9V288h-2.8v-3.3h6.9v10.9H519l-.6-1.8c-1.1 1.2-2.3 2.1-3.8 2.1-3.9 0-6.7-1.9-6.7-7.1v-7.6c0-5.2 2.8-7.1 6.7-7.1 4.1 0 6.4 2.4 6.5 7.2h-4c0-2.7-1-3.6-2.5-3.6-1.6 0-2.6.6-2.6 3v8.6c-.1 2.3.9 2.9 2.5 2.9m21.8-3.5c0 5.2-2.8 7.1-6.7 7.1-3.9 0-6.7-1.9-6.7-7.1v-7.6c0-5.2 2.8-7.1 6.7-7.1 3.9 0 6.7 1.9 6.7 7.1zm26.4 6.8h-3.9l-3-14.5h-.1l-3.2 14.5h-3.9l-4.4-21.2h3.8l2.8 13.8h.1l2.9-13.8h3.9l2.9 13.8h.1l2.8-13.8h3.8zm17.4 0h-11.4v-21.2h11.1v3.6h-7v4.9h5.4v3.6h-5.4v5.6h7.3zm8.1.3c-3.3 0-5.8-1.8-6.9-6l4-.8c.5 2.6 1.9 3.5 3.1 3.5 1.4 0 2.5-.9 2.5-2.5 0-4-9-4-9-10 0-3.6 2.2-5.9 6.4-5.9 3.6 0 5.8 2.1 6.5 5.1l-3.6 1.1c-.7-2-1.6-2.8-3-2.8s-2.2.9-2.2 2.3c0 3.2 9 3.4 9 10.1 0 3.5-2.5 5.9-6.8 5.9m21.4-17.9h-4.7v17.6h-4v-17.6h-4.7v-3.6h13.5v3.6z" id="path60" fill="#ff3131"/><path class="st2" d="M620.9 304.8H497.1c-2 70.9 61.9 82 61.9 82 67.9-14.3 61.9-82 61.9-82m-99.8 47.9c-6.9-2-12-7.5-13.4-14.2-1.8-10-2.7-20-2.4-29.9h8.1c-.4 10.6.3 21.3 1.9 31.9.5 3.1 2 5 4.7 5.6 2.7.6 3.8-.7 3.4-4-1.3-11.2-1.8-22.4-1.4-33.5h8.1c-.4 11.3 0 22.9 1 34.4.7 8-3.1 11.6-10 9.7m44.2 23.5c-1.3-14.5-3.5-29.5-5.9-44.5h-.2c-2.3 15-4.5 30-6.1 44.7-2.4-.1-4.8-.4-7.2-.7-4.6-22.6-9.8-45.5-12.9-67h9.3c1.8 14.1 4.2 28.5 6.5 43h.2c1.7-14.3 3.9-28.7 6.1-43h8.2c2.4 14.2 4.7 28.7 6.3 42.8h.2c2.3-14.4 4.5-28.8 6-42.8h9.3c-2.6 21.3-7.6 44-12.5 66.5-2.5.4-4.9.7-7.3 1m17-20.3h-1v2.8h-.7v-2.8h-1v-.6h2.6v.6zm3.7 2.8h-.6v-2.6l-.7 2.6h-.6l-.7-2.6v2.6h-.6v-3.3h1l.6 2.3.6-2.3h1zm24.4-39.7c0 .8-.1 1.7-.1 2.5-2.5.3-5 .5-7.5.8.2-6.3-1.3-7.9-4.5-7.8-2 .1-3.5 1.2-3.6 5-.1 7.6-.6 15.2-1.5 22.8-.3 2.8.3 4.5 2.9 3.9 3-.7 4.4-2.7 5-6.9.2-1.4.4-2.7.5-4.1-1.6.3-3.3.6-4.9.8.2-2 .4-4 .5-5.9 4.3-.5 8.5-1.2 12.7-1.9-.8 6.8-2 13.6-3.7 20.3-1.2.4-2.3.8-3.5 1.2-.2-.9-.4-1.8-.7-2.7-2.7 3.2-4.7 5-8.1 5.9-5.8 1.6-9.2-2.2-8.6-9.5.7-7.9 1.1-15.8 1.1-23.7 0-6.5 3.7-11.7 11.6-11.7 8.4.1 12.7 5.1 12.4 11" id="path62" fill="#0051a7"/></g></svg>